<mxfile host="app.diagrams.net" agent="Mozilla/5.0 (Macintosh; Intel Mac OS X 10_15_7) AppleWebKit/537.36 (KHTML, like Gecko) Chrome/132.0.0.0 Safari/537.36" version="26.0.11">
  <diagram name="Page-1" id="929967ad-93f9-6ef4-fab6-5d389245f69c">
    <mxGraphModel dx="514" dy="673" grid="1" gridSize="10" guides="1" tooltips="1" connect="1" arrows="1" fold="1" page="1" pageScale="1.5" pageWidth="1169" pageHeight="826" background="none" math="0" shadow="0">
      <root>
        <mxCell id="0" style=";html=1;" />
        <mxCell id="1" style=";html=1;" parent="0" />
        <mxCell id="1672d66443f91eb5-1" value="&lt;p style=&quot;margin: 0px ; margin-top: 4px ; margin-left: 10px ; text-align: left&quot;&gt;&lt;b&gt;Destination Package&lt;/b&gt;&lt;/p&gt;" style="html=1;strokeWidth=1;shape=mxgraph.sysml.package;html=1;overflow=fill;whiteSpace=wrap;fillColor=#dae8fc;fontSize=12;align=center;labelX=327.64;strokeColor=#6c8ebf;" parent="1" vertex="1">
          <mxGeometry x="350" y="250" width="890" height="520" as="geometry" />
        </mxCell>
        <mxCell id="rpGsWSdBKoxRbKyVbrdc-14" style="edgeStyle=orthogonalEdgeStyle;rounded=0;orthogonalLoop=1;jettySize=auto;html=1;dashed=1;" parent="1" source="rpGsWSdBKoxRbKyVbrdc-1" target="rpGsWSdBKoxRbKyVbrdc-2" edge="1">
          <mxGeometry relative="1" as="geometry" />
        </mxCell>
        <mxCell id="rpGsWSdBKoxRbKyVbrdc-15" value="Use" style="edgeLabel;html=1;align=center;verticalAlign=middle;resizable=0;points=[];" parent="rpGsWSdBKoxRbKyVbrdc-14" vertex="1" connectable="0">
          <mxGeometry x="0.1315" y="2" relative="1" as="geometry">
            <mxPoint as="offset" />
          </mxGeometry>
        </mxCell>
        <mxCell id="rpGsWSdBKoxRbKyVbrdc-16" style="edgeStyle=orthogonalEdgeStyle;shape=connector;rounded=0;orthogonalLoop=1;jettySize=auto;html=1;dashed=1;strokeColor=default;align=center;verticalAlign=middle;fontFamily=Helvetica;fontSize=11;fontColor=default;labelBackgroundColor=default;endArrow=classic;" parent="1" source="rpGsWSdBKoxRbKyVbrdc-1" target="rpGsWSdBKoxRbKyVbrdc-3" edge="1">
          <mxGeometry relative="1" as="geometry">
            <Array as="points">
              <mxPoint x="705" y="480" />
            </Array>
          </mxGeometry>
        </mxCell>
        <mxCell id="rpGsWSdBKoxRbKyVbrdc-18" value="Use" style="edgeStyle=orthogonalEdgeStyle;shape=connector;rounded=0;orthogonalLoop=1;jettySize=auto;html=1;dashed=1;strokeColor=default;align=center;verticalAlign=middle;fontFamily=Helvetica;fontSize=11;fontColor=default;labelBackgroundColor=default;endArrow=classic;" parent="1" source="rpGsWSdBKoxRbKyVbrdc-1" target="rpGsWSdBKoxRbKyVbrdc-11" edge="1">
          <mxGeometry relative="1" as="geometry">
            <Array as="points">
              <mxPoint x="705" y="470" />
            </Array>
          </mxGeometry>
        </mxCell>
        <mxCell id="rpGsWSdBKoxRbKyVbrdc-19" value="Use" style="edgeStyle=orthogonalEdgeStyle;shape=connector;rounded=0;orthogonalLoop=1;jettySize=auto;html=1;dashed=1;strokeColor=default;align=center;verticalAlign=middle;fontFamily=Helvetica;fontSize=11;fontColor=default;labelBackgroundColor=default;endArrow=classic;" parent="1" source="rpGsWSdBKoxRbKyVbrdc-1" target="rpGsWSdBKoxRbKyVbrdc-12" edge="1">
          <mxGeometry relative="1" as="geometry">
            <Array as="points">
              <mxPoint x="920" y="350" />
              <mxPoint x="920" y="390" />
            </Array>
          </mxGeometry>
        </mxCell>
        <mxCell id="rpGsWSdBKoxRbKyVbrdc-22" style="edgeStyle=orthogonalEdgeStyle;shape=connector;rounded=0;orthogonalLoop=1;jettySize=auto;html=1;dashed=1;strokeColor=default;align=center;verticalAlign=middle;fontFamily=Helvetica;fontSize=11;fontColor=default;labelBackgroundColor=default;endArrow=classic;" parent="1" source="rpGsWSdBKoxRbKyVbrdc-1" target="rpGsWSdBKoxRbKyVbrdc-8" edge="1">
          <mxGeometry relative="1" as="geometry">
            <Array as="points">
              <mxPoint x="920" y="350" />
              <mxPoint x="920" y="660" />
            </Array>
          </mxGeometry>
        </mxCell>
        <mxCell id="rpGsWSdBKoxRbKyVbrdc-23" style="edgeStyle=orthogonalEdgeStyle;shape=connector;rounded=0;orthogonalLoop=1;jettySize=auto;html=1;dashed=1;strokeColor=default;align=center;verticalAlign=middle;fontFamily=Helvetica;fontSize=11;fontColor=default;labelBackgroundColor=default;endArrow=classic;" parent="1" source="rpGsWSdBKoxRbKyVbrdc-1" target="rpGsWSdBKoxRbKyVbrdc-9" edge="1">
          <mxGeometry relative="1" as="geometry">
            <Array as="points">
              <mxPoint x="920" y="350" />
              <mxPoint x="920" y="560" />
            </Array>
          </mxGeometry>
        </mxCell>
        <mxCell id="rpGsWSdBKoxRbKyVbrdc-1" value="CityAdapter" style="shape=folder;fontStyle=1;tabWidth=40;tabHeight=20;tabPosition=left;html=1;boundedLbl=1;whiteSpace=wrap;" parent="1" vertex="1">
          <mxGeometry x="630" y="320" width="150" height="60" as="geometry" />
        </mxCell>
        <mxCell id="rpGsWSdBKoxRbKyVbrdc-2" value="FunFacts" style="shape=folder;fontStyle=1;tabWidth=40;tabHeight=20;tabPosition=left;html=1;boundedLbl=1;whiteSpace=wrap;" parent="1" vertex="1">
          <mxGeometry x="400" y="440" width="100" height="60" as="geometry" />
        </mxCell>
        <mxCell id="rpGsWSdBKoxRbKyVbrdc-3" value="FinalCityInfoActivity" style="shape=folder;fontStyle=1;tabWidth=40;tabHeight=20;tabPosition=left;html=1;boundedLbl=1;whiteSpace=wrap;" parent="1" vertex="1">
          <mxGeometry x="535" y="440" width="130" height="60" as="geometry" />
        </mxCell>
        <mxCell id="rpGsWSdBKoxRbKyVbrdc-4" value="HangoutFragment" style="shape=folder;fontStyle=1;tabWidth=40;tabHeight=20;tabPosition=left;html=1;boundedLbl=1;whiteSpace=wrap;" parent="1" vertex="1">
          <mxGeometry x="540" y="520" width="120" height="60" as="geometry" />
        </mxCell>
        <mxCell id="rpGsWSdBKoxRbKyVbrdc-5" value="MonumentsModeFragment" style="shape=folder;fontStyle=1;tabWidth=40;tabHeight=20;tabPosition=left;html=1;boundedLbl=1;whiteSpace=wrap;" parent="1" vertex="1">
          <mxGeometry x="500" y="620" width="180" height="60" as="geometry" />
        </mxCell>
        <mxCell id="rpGsWSdBKoxRbKyVbrdc-6" value="HangoutsSpotFragment" style="shape=folder;fontStyle=1;tabWidth=40;tabHeight=20;tabPosition=left;html=1;boundedLbl=1;whiteSpace=wrap;" parent="1" vertex="1">
          <mxGeometry x="740" y="620" width="170" height="60" as="geometry" />
        </mxCell>
        <mxCell id="rpGsWSdBKoxRbKyVbrdc-7" value="ButStopModeFragment" style="shape=folder;fontStyle=1;tabWidth=40;tabHeight=20;tabPosition=left;html=1;boundedLbl=1;whiteSpace=wrap;" parent="1" vertex="1">
          <mxGeometry x="740" y="520" width="170" height="60" as="geometry" />
        </mxCell>
        <mxCell id="rpGsWSdBKoxRbKyVbrdc-8" value="ShoppingModeFragment" style="shape=folder;fontStyle=1;tabWidth=40;tabHeight=20;tabPosition=left;html=1;boundedLbl=1;whiteSpace=wrap;" parent="1" vertex="1">
          <mxGeometry x="990" y="630" width="170" height="60" as="geometry" />
        </mxCell>
        <mxCell id="rpGsWSdBKoxRbKyVbrdc-9" value="PetrolModeFragment" style="shape=folder;fontStyle=1;tabWidth=40;tabHeight=20;tabPosition=left;html=1;boundedLbl=1;whiteSpace=wrap;" parent="1" vertex="1">
          <mxGeometry x="990" y="530" width="170" height="60" as="geometry" />
        </mxCell>
        <mxCell id="rpGsWSdBKoxRbKyVbrdc-10" value="AtmModeFragment" style="shape=folder;fontStyle=1;tabWidth=40;tabHeight=20;tabPosition=left;html=1;boundedLbl=1;whiteSpace=wrap;" parent="1" vertex="1">
          <mxGeometry x="990" y="440" width="170" height="60" as="geometry" />
        </mxCell>
        <mxCell id="rpGsWSdBKoxRbKyVbrdc-11" value="HospitalModeFragment" style="shape=folder;fontStyle=1;tabWidth=40;tabHeight=20;tabPosition=left;html=1;boundedLbl=1;whiteSpace=wrap;" parent="1" vertex="1">
          <mxGeometry x="740" y="430" width="170" height="60" as="geometry" />
        </mxCell>
        <mxCell id="rpGsWSdBKoxRbKyVbrdc-12" value="EatModeFragment" style="shape=folder;fontStyle=1;tabWidth=40;tabHeight=20;tabPosition=left;html=1;boundedLbl=1;whiteSpace=wrap;" parent="1" vertex="1">
          <mxGeometry x="990" y="360" width="170" height="60" as="geometry" />
        </mxCell>
        <mxCell id="rpGsWSdBKoxRbKyVbrdc-20" style="edgeStyle=orthogonalEdgeStyle;shape=connector;rounded=0;orthogonalLoop=1;jettySize=auto;html=1;entryX=0;entryY=0;entryDx=40;entryDy=20;entryPerimeter=0;dashed=1;strokeColor=default;align=center;verticalAlign=middle;fontFamily=Helvetica;fontSize=11;fontColor=default;labelBackgroundColor=default;endArrow=classic;" parent="1" source="rpGsWSdBKoxRbKyVbrdc-1" target="rpGsWSdBKoxRbKyVbrdc-10" edge="1">
          <mxGeometry relative="1" as="geometry">
            <Array as="points">
              <mxPoint x="920" y="350" />
              <mxPoint x="920" y="460" />
            </Array>
          </mxGeometry>
        </mxCell>
        <mxCell id="rpGsWSdBKoxRbKyVbrdc-24" style="edgeStyle=orthogonalEdgeStyle;shape=connector;rounded=0;orthogonalLoop=1;jettySize=auto;html=1;entryX=0;entryY=0;entryDx=0;entryDy=40;entryPerimeter=0;dashed=1;strokeColor=default;align=center;verticalAlign=middle;fontFamily=Helvetica;fontSize=11;fontColor=default;labelBackgroundColor=default;endArrow=classic;" parent="1" source="rpGsWSdBKoxRbKyVbrdc-1" target="rpGsWSdBKoxRbKyVbrdc-7" edge="1">
          <mxGeometry relative="1" as="geometry" />
        </mxCell>
        <mxCell id="rpGsWSdBKoxRbKyVbrdc-25" style="edgeStyle=orthogonalEdgeStyle;shape=connector;rounded=0;orthogonalLoop=1;jettySize=auto;html=1;entryX=0;entryY=0;entryDx=0;entryDy=40;entryPerimeter=0;dashed=1;strokeColor=default;align=center;verticalAlign=middle;fontFamily=Helvetica;fontSize=11;fontColor=default;labelBackgroundColor=default;endArrow=classic;" parent="1" source="rpGsWSdBKoxRbKyVbrdc-1" target="rpGsWSdBKoxRbKyVbrdc-6" edge="1">
          <mxGeometry relative="1" as="geometry" />
        </mxCell>
        <mxCell id="rpGsWSdBKoxRbKyVbrdc-26" style="edgeStyle=orthogonalEdgeStyle;shape=connector;rounded=0;orthogonalLoop=1;jettySize=auto;html=1;entryX=0;entryY=0;entryDx=120;entryDy=50;entryPerimeter=0;dashed=1;strokeColor=default;align=center;verticalAlign=middle;fontFamily=Helvetica;fontSize=11;fontColor=default;labelBackgroundColor=default;endArrow=classic;" parent="1" source="rpGsWSdBKoxRbKyVbrdc-1" target="rpGsWSdBKoxRbKyVbrdc-4" edge="1">
          <mxGeometry relative="1" as="geometry" />
        </mxCell>
        <mxCell id="rpGsWSdBKoxRbKyVbrdc-27" style="edgeStyle=orthogonalEdgeStyle;shape=connector;rounded=0;orthogonalLoop=1;jettySize=auto;html=1;entryX=0;entryY=0;entryDx=180;entryDy=50;entryPerimeter=0;dashed=1;strokeColor=default;align=center;verticalAlign=middle;fontFamily=Helvetica;fontSize=11;fontColor=default;labelBackgroundColor=default;endArrow=classic;" parent="1" source="rpGsWSdBKoxRbKyVbrdc-1" target="rpGsWSdBKoxRbKyVbrdc-5" edge="1">
          <mxGeometry relative="1" as="geometry" />
        </mxCell>
      </root>
    </mxGraphModel>
  </diagram>
</mxfile>
